# Blender 3.6.0
# www.blender.org
mtllib wind vector.mtl
o Cube
v -0.000000 1.000000 -0.123989
v -0.500000 0.866025 -0.123989
v -0.866025 0.500000 -0.123989
v -1.000000 0.000000 -0.123989
v -0.866025 -0.500000 -0.123989
v -0.500000 -0.866025 -0.123989
v -0.000000 -1.000000 -0.123989
v 0.500000 -0.866025 -0.123989
v 0.866025 -0.500000 -0.123989
v 1.000000 0.000000 -0.123989
v 0.866025 0.500000 -0.123989
v 0.500000 0.866025 -0.123989
v -0.000000 1.000000 -0.386104
v -0.500000 0.866025 -0.386104
v -0.866025 0.500000 -0.386104
v -1.000000 0.000000 -0.386104
v -0.866025 -0.500000 -0.386104
v -0.500000 -0.866025 -0.386104
v -0.000000 -1.000000 -0.386104
v 0.500000 -0.866025 -0.386104
v 0.866025 -0.500000 -0.386104
v 1.000000 0.000000 -0.386104
v 0.866025 0.500000 -0.386104
v 0.500000 0.866025 -0.386104
v 0.355635 -0.615978 -0.255046
v 0.615978 -0.355635 -0.255046
v -0.615978 -0.355635 -0.255046
v -0.355635 -0.615978 -0.255046
v 0.355635 0.615978 -0.255046
v -0.000000 0.711270 -0.255046
v -0.355635 0.615978 -0.255046
v -0.615978 0.355635 -0.255046
v 0.711270 0.000000 -0.255046
v -0.000000 -0.711270 -0.255046
v -0.711270 0.000000 -0.255046
v 0.615978 0.355635 -0.255046
v -0.000000 0.822599 -0.255046
v 0.411299 0.712391 -0.255046
v 0.712391 0.411299 -0.255046
v 0.822598 0.000000 -0.255046
v 0.712391 -0.411299 -0.255046
v 0.411299 -0.712391 -0.255046
v -0.000000 -0.822599 -0.255046
v -0.411299 -0.712391 -0.255046
v -0.712391 -0.411299 -0.255046
v -0.822598 0.000000 -0.255046
v -0.712391 0.411299 -0.255046
v -0.411299 0.712391 -0.255046
vn -0.3579 0.2067 -0.9106
vn -0.2067 0.3579 -0.9106
vn 0.2067 0.3579 -0.9106
vn 0.3579 0.2067 -0.9106
vn -0.0000 -0.4133 -0.9106
vn -0.2067 -0.3579 -0.9106
vn 0.3579 -0.2067 -0.9106
vn 0.2067 -0.3579 -0.9106
vn -0.4133 -0.0000 -0.9106
vn -0.0000 0.4133 -0.9106
vn 0.4133 -0.0000 -0.9106
vn -0.3579 -0.2067 -0.9106
vn 0.2067 -0.3579 0.9106
vn -0.0000 -0.4133 0.9106
vn -0.2067 -0.3579 0.9106
vn -0.3579 -0.2067 0.9106
vn 0.3579 0.2067 0.9106
vn 0.4133 -0.0000 0.9106
vn -0.2067 0.3579 0.9106
vn -0.0000 0.4133 0.9106
vn -0.4133 -0.0000 0.9106
vn 0.3579 -0.2067 0.9106
vn 0.2067 0.3579 0.9106
vn -0.3579 0.2067 0.9106
vn -0.0000 0.5942 -0.8043
vn 0.2971 0.5146 -0.8043
vn 0.5146 0.2971 -0.8043
vn 0.5942 -0.0000 -0.8043
vn 0.5146 -0.2971 -0.8043
vn 0.2971 -0.5146 -0.8043
vn -0.0000 -0.5942 -0.8043
vn -0.2971 -0.5146 -0.8043
vn -0.5146 -0.2971 -0.8043
vn -0.5942 -0.0000 -0.8043
vn -0.5146 0.2971 -0.8043
vn -0.2971 0.5146 -0.8043
vn -0.2971 0.5146 0.8043
vn -0.0000 0.5942 0.8043
vn -0.5146 0.2971 0.8043
vn -0.5942 -0.0000 0.8043
vn -0.5146 -0.2971 0.8043
vn -0.2971 -0.5146 0.8043
vn -0.0000 -0.5942 0.8043
vn 0.2971 -0.5146 0.8043
vn 0.5146 -0.2971 0.8043
vn 0.5942 -0.0000 0.8043
vn 0.5146 0.2971 0.8043
vn 0.2971 0.5146 0.8043
vt 0.258273 0.738858
vt 0.135396 0.866354
vt 0.364621 0.991519
vt 0.407873 0.823543
vt 0.728731 0.740077
vt 0.852273 0.866468
vt 0.979594 0.642520
vt 0.814409 0.593920
vt 0.412168 0.175103
vt 0.364716 0.007963
vt 0.131005 0.138995
vt 0.257266 0.263474
vt 0.747950 0.268070
vt 0.867463 0.151499
vt 0.635972 0.010175
vt 0.591200 0.176215
vt 0.172339 0.588369
vt 0.006127 0.638938
vt 0.579109 0.824680
vt 0.626090 0.993421
vt 0.819523 0.427842
vt 0.991343 0.385020
vt 0.173270 0.416506
vt 0.009209 0.374711
s 1
usemtl Material.001
f 26/1/1 21/2/1 20/3/2 25/4/2
f 28/5/3 18/6/3 17/7/4 27/8/4
f 30/9/5 13/10/5 24/11/6 29/12/6
f 32/13/7 15/14/7 14/15/8 31/16/8
f 33/17/9 22/18/9 21/2/1 26/1/1
f 34/19/10 19/20/10 18/6/3 28/5/3
f 35/21/11 16/22/11 15/14/7 32/13/7
f 36/23/12 23/24/12 22/18/9 33/17/9
f 25/4/2 20/3/2 19/20/10 34/19/10
f 27/8/4 17/7/4 16/22/11 35/21/11
f 29/12/6 24/11/6 23/24/12 36/23/12
f 31/16/8 14/15/8 13/10/5 30/9/5
f 2/24/13 31/23/13 30/12/14 1/11/14
f 12/10/15 29/9/15 36/16/16 11/15/16
f 5/3/17 27/4/17 35/1/18 4/2/18
f 8/7/19 25/8/19 34/5/20 7/6/20
f 11/15/16 36/16/16 33/13/21 10/14/21
f 4/2/18 35/1/18 32/17/22 3/18/22
f 7/6/20 34/5/20 28/19/23 6/20/23
f 10/14/21 33/13/21 26/21/24 9/22/24
f 3/18/22 32/17/22 31/23/13 2/24/13
f 1/11/14 30/12/14 29/9/15 12/10/15
f 6/20/23 28/19/23 27/4/17 5/3/17
f 9/22/24 26/21/24 25/8/19 8/7/19
f 37/12/25 1/11/25 12/10/26 38/9/26
f 38/9/26 12/10/26 11/15/27 39/16/27
f 39/16/27 11/15/27 10/14/28 40/13/28
f 40/13/28 10/14/28 9/22/29 41/21/29
f 41/21/29 9/22/29 8/7/30 42/8/30
f 42/8/30 8/7/30 7/6/31 43/5/31
f 43/5/31 7/6/31 6/20/32 44/19/32
f 44/19/32 6/20/32 5/3/33 45/4/33
f 45/4/33 5/3/33 4/2/34 46/1/34
f 46/1/34 4/2/34 3/18/35 47/17/35
f 47/17/35 3/18/35 2/24/36 48/23/36
f 48/23/36 2/24/36 1/11/25 37/12/25
f 14/15/37 48/16/37 37/9/38 13/10/38
f 15/14/39 47/13/39 48/16/37 14/15/37
f 16/22/40 46/21/40 47/13/39 15/14/39
f 17/7/41 45/8/41 46/21/40 16/22/40
f 18/6/42 44/5/42 45/8/41 17/7/41
f 19/20/43 43/19/43 44/5/42 18/6/42
f 20/3/44 42/4/44 43/19/43 19/20/43
f 21/2/45 41/1/45 42/4/44 20/3/44
f 22/18/46 40/17/46 41/1/45 21/2/45
f 23/24/47 39/23/47 40/17/46 22/18/46
f 24/11/48 38/12/48 39/23/47 23/24/47
f 13/10/38 37/9/38 38/12/48 24/11/48
